<svg xmlns="http://www.w3.org/2000/svg" viewBox="0 0 400 300" preserveAspectRatio="xMidYMid slice">
  <defs>
    <linearGradient id="skyAlley" x1="0%" y1="0%" x2="0%" y2="100%">
      <stop offset="0%" style="stop-color:#87CEEB"/>
      <stop offset="60%" style="stop-color:#90EE90;stop-opacity:0.3"/>
      <stop offset="100%" style="stop-color:#228B22"/>
    </linearGradient>
    <linearGradient id="pathGrad" x1="0%" y1="0%" x2="0%" y2="100%">
      <stop offset="0%" style="stop-color:#D2B48C"/>
      <stop offset="100%" style="stop-color:#8B7355"/>
    </linearGradient>
    <linearGradient id="leafGreen" x1="0%" y1="0%" x2="0%" y2="100%">
      <stop offset="0%" style="stop-color:#32CD32"/>
      <stop offset="50%" style="stop-color:#228B22"/>
      <stop offset="100%" style="stop-color:#1a5c1a"/>
    </linearGradient>
    <linearGradient id="leafLight" x1="0%" y1="0%" x2="100%" y2="100%">
      <stop offset="0%" style="stop-color:#90EE90"/>
      <stop offset="100%" style="stop-color:#3CB371"/>
    </linearGradient>
  </defs>
  
  <!-- Фон -->
  <rect width="400" height="300" fill="url(#skyAlley)"/>
  
  <!-- Солнечные лучи сквозь листву -->
  <g fill="rgba(255,255,200,0.15)">
    <polygon points="200,0 150,300 180,300"/>
    <polygon points="200,0 220,300 250,300"/>
    <polygon points="180,0 100,300 130,300"/>
    <polygon points="220,0 270,300 300,300"/>
  </g>
  
  <!-- Дорожка (аллея) -->
  <path d="M150 300 L180 150 L190 100 L200 60 L210 100 L220 150 L250 300 Z" fill="url(#pathGrad)"/>
  <path d="M160 300 L185 150 L195 100 L200 70 L205 100 L215 150 L240 300 Z" fill="#C4A77D" opacity="0.5"/>
  
  <!-- Левые деревья -->
  <g>
    <!-- Дерево 1 левое дальнее -->
    <rect x="70" y="80" width="15" height="220" fill="#6B4423"/>
    <ellipse cx="77" cy="60" rx="45" ry="50" fill="url(#leafGreen)"/>
    <ellipse cx="60" cy="50" rx="30" ry="35" fill="url(#leafLight)" opacity="0.7"/>
    <ellipse cx="90" cy="70" rx="25" ry="30" fill="#2E8B57" opacity="0.8"/>
    
    <!-- Дерево 2 левое среднее -->
    <rect x="30" y="120" width="20" height="180" fill="#8B4513"/>
    <ellipse cx="40" cy="100" rx="55" ry="60" fill="url(#leafGreen)"/>
    <ellipse cx="25" cy="85" rx="35" ry="40" fill="url(#leafLight)" opacity="0.7"/>
    <ellipse cx="55" cy="110" rx="30" ry="35" fill="#2E8B57" opacity="0.8"/>
    
    <!-- Дерево 3 левое ближнее -->
    <rect x="-15" y="150" width="25" height="150" fill="#A0522D"/>
    <ellipse cx="0" cy="130" rx="65" ry="70" fill="url(#leafGreen)"/>
    <ellipse cx="-20" cy="110" rx="40" ry="45" fill="url(#leafLight)" opacity="0.7"/>
    <ellipse cx="20" cy="140" rx="35" ry="40" fill="#2E8B57" opacity="0.8"/>
  </g>
  
  <!-- Правые деревья -->
  <g>
    <!-- Дерево 1 правое дальнее -->
    <rect x="315" y="80" width="15" height="220" fill="#6B4423"/>
    <ellipse cx="322" cy="60" rx="45" ry="50" fill="url(#leafGreen)"/>
    <ellipse cx="340" cy="50" rx="30" ry="35" fill="url(#leafLight)" opacity="0.7"/>
    <ellipse cx="308" cy="70" rx="25" ry="30" fill="#2E8B57" opacity="0.8"/>
    
    <!-- Дерево 2 правое среднее -->
    <rect x="350" y="120" width="20" height="180" fill="#8B4513"/>
    <ellipse cx="360" cy="100" rx="55" ry="60" fill="url(#leafGreen)"/>
    <ellipse cx="375" cy="85" rx="35" ry="40" fill="url(#leafLight)" opacity="0.7"/>
    <ellipse cx="345" cy="110" rx="30" ry="35" fill="#2E8B57" opacity="0.8"/>
    
    <!-- Дерево 3 правое ближнее -->
    <rect x="390" y="150" width="25" height="150" fill="#A0522D"/>
    <ellipse cx="400" cy="130" rx="65" ry="70" fill="url(#leafGreen)"/>
    <ellipse cx="420" cy="110" rx="40" ry="45" fill="url(#leafLight)" opacity="0.7"/>
    <ellipse cx="380" cy="140" rx="35" ry="40" fill="#2E8B57" opacity="0.8"/>
  </g>
  
  <!-- Навес из листвы сверху -->
  <ellipse cx="200" cy="-20" rx="250" ry="80" fill="url(#leafGreen)" opacity="0.9"/>
  <ellipse cx="150" cy="10" rx="100" ry="50" fill="url(#leafLight)" opacity="0.5"/>
  <ellipse cx="250" cy="5" rx="80" ry="45" fill="#2E8B57" opacity="0.6"/>
  
  <!-- Кусты по бокам дорожки -->
  <ellipse cx="130" cy="280" rx="40" ry="25" fill="#3CB371"/>
  <ellipse cx="270" cy="280" rx="40" ry="25" fill="#3CB371"/>
  <ellipse cx="100" cy="290" rx="35" ry="20" fill="#2E8B57"/>
  <ellipse cx="300" cy="290" rx="35" ry="20" fill="#2E8B57"/>
  
  <!-- Трава -->
  <rect x="0" y="290" width="150" height="10" fill="#228B22"/>
  <rect x="250" y="290" width="150" height="10" fill="#228B22"/>
  
  <!-- Блики света -->
  <circle cx="200" cy="80" r="30" fill="rgba(255,255,200,0.3)"/>
  <circle cx="180" cy="120" r="15" fill="rgba(255,255,200,0.2)"/>
  <circle cx="220" cy="100" r="10" fill="rgba(255,255,200,0.25)"/>
</svg>

